<?xml version='1.0' encoding='utf-8'?>
<svg xmlns="http://www.w3.org/2000/svg" width="878.1" height="892.17" clip-path="url(#a)" version="1.2" viewBox="0 0 24782 25178.999">
 <defs>
  <clipPath id="a">
   <rect width="25576" height="25576"/>
  </clipPath>
  </defs>
 <g transform="matrix(0,-1,-1,0,25179,25179)" fill="#2b2c7c">
       <g fill="#2b2c7c">
        <path d="m892 12788c0 2190 499 4052 1594 5948s2458 3259 4354 4354 3758 1594 5948 1594 4051-499 5947-1594c1897-1095 3259-2458 4354-4354s1594-3758 1594-5948-499-4051-1594-5947c-1095-1897-2457-3259-4354-4354-1896-1095-3757-1594-5947-1594s-4052 499-5948 1594-3259 2457-4354 4354c-1095 1896-1594 3757-1594 5947z" fill="#2b2c7c"/>
       </g>
      </g>
 <g transform="matrix(0,-1,-1,0,25179,25179)" fill="none">
       <g fill="none">
        <path d="m441 12788c0 2273 517 4205 1654 6174 1136 1968 2551 3383 4519 4519 1969 1137 3901 1654 6174 1654s4205-517 6173-1654c1969-1136 3383-2551 4520-4519 1136-1969 1654-3901 1654-6174s-518-4205-1654-6173c-1137-1969-2551-3383-4520-4520-1968-1136-3900-1654-6173-1654s-4205 518-6174 1654c-1968 1137-3383 2551-4519 4520-1137 1968-1654 3900-1654 6173z"/>
        <path d="m441 12788c0 2273 517 4205 1654 6174 1136 1968 2551 3383 4519 4519 1969 1137 3901 1654 6174 1654s4205-517 6173-1654c1969-1136 3383-2551 4520-4519 1136-1969 1654-3901 1654-6174s-518-4205-1654-6173c-1137-1969-2551-3383-4520-4520-1968-1136-3900-1654-6173-1654s-4205 518-6174 1654c-1968 1137-3383 2551-4519 4520-1137 1968-1654 3900-1654 6173z" stroke="#000" stroke-width="88"/>
       </g>
      </g>
<rect transform="scale(-1,1)" x="-20145" y="20873" width="17883" height="20361" fill="none"/><path d="m14642 7605.8c-42.287-0.5221-82.384 6.5021-119.06 20.285-293.96 110.41-386.62 534.52-279.58 819.33l79.375 210.78 1203.9 1659.8c0.469 1.259 1.296 2.27 1.764 3.528-1113.8 272.47-2246.9 1056.8-3035.7 2006.4-35.337 42.539-69.992 85.523-104.07 128.76-25.631-32.087-50.398-64.435-76.729-96.132-788.8-949.58-1921.8-1733.3-3035.7-2005.5 0.4685-1.261 1.2954-2.266 1.7639-3.528l1203-1659.8 79.375-211.67c107.05-284.81 14.38-708.91-279.58-819.33-36.679-13.783-76.776-19.926-119.06-19.403-42.287 0.5221-87.104 7.644-134.06 22.049-7728.8 1368 92.247-93.715-8076.8 1337 5185.8 6609.8 1454.7 1762.4 5234.3 6469.1 58.036 73.37 123 123.47 195.79 150.81 295.07 110.83 631.17-39.252 785.81-450.67l52.035-135.82 131.41-1887.4 119.06-0.88c741.32-3.47 1197 657.91 1720.7 1305.3 525.58 647.36 772.96 1371.9 791.99 2289.5l12.347 3353.2-7.056 1906.8h14.111v42.334l2815.2-8.82-7.055-1940.3 12.347-3385.8c19.032-917.58 266.4-1643 791.99-2290.4 523.64-647.37 980.23-1307.9 1721.6-1304.4l119.06 0.881 131.41 1886.5 51.152 136.7c154.64 411.42 490.74 560.62 785.81 449.79 72.793-27.342 137.76-77.442 195.79-150.81 3779.6-4706.6 48.534 141.63 5234.3-6468.2-8169.1-1430.7-348.09 30.923-8076.8-1337-46.951-14.405-91.769-22.408-134.06-22.931z" fill="#fff" fill-rule="evenodd" stroke-linejoin="round" stroke-width="28.222"/></svg>